<?xml version="1.0" encoding="utf-8"?>
<!-- Generator: Adobe Illustrator 17.1.0, SVG Export Plug-In . SVG Version: 6.00 Build 0)  -->
<!DOCTYPE svg PUBLIC "-//W3C//DTD SVG 1.1//EN" "http://www.w3.org/Graphics/SVG/1.1/DTD/svg11.dtd">
<svg version="1.1" id="_x31_" xmlns="http://www.w3.org/2000/svg" xmlns:xlink="http://www.w3.org/1999/xlink" x="0px" y="0px"
	 viewBox="0 0 72 72" enable-background="new 0 0 72 72" xml:space="preserve">
<path opacity="0.79" fill-rule="evenodd" clip-rule="evenodd" fill="#fe7908" d="M36,0L36,0c19.8,0,36,16.2,36,36l0,0
	c0,19.8-16.2,36-36,36l0,0C16.2,72,0,55.8,0,36l0,0C0,16.2,16.2,0,36,0z"/>
<path fill-rule="evenodd" clip-rule="evenodd" fill="#FFFFFF" d="M39.6,42.4l-2.3-2.5c-3.1,2.5-6.9,3.7-10.6,3.5
	c-4-0.2-7.9-1.9-10.8-5l0,0l0,0l0,0c-2.9-3.2-4.3-7.2-4.1-11.2c0.2-4,1.9-7.9,5-10.8l0,0l0,0l0,0c3.2-2.9,7.2-4.3,11.2-4.1
	c4,0.2,7.9,1.9,10.8,5.1c2.9,3.2,4.3,7.2,4.1,11.2c-0.2,3.7-1.7,7.4-4.4,10.2l2.3,2.5l0.9-0.8c0.4-0.4,0.9-0.5,1.4-0.5
	c0.5,0,1,0.2,1.4,0.6l12,13.1c0.4,0.4,0.5,0.9,0.5,1.4c0,0.5-0.2,1-0.6,1.4l-3,2.8c-0.4,0.4-0.9,0.5-1.4,0.5c-0.5,0-1-0.2-1.4-0.6
	L38.5,46c-0.4-0.4-0.5-0.9-0.5-1.4c0-0.5,0.2-1,0.6-1.4L39.6,42.4L39.6,42.4z M18.6,27.1v1.7h7.9v7.9h1.7v-7.9H36v-1.7h-7.9v-7.9
	h-1.7v7.9H18.6L18.6,27.1z M28,14c-3.5-0.2-7.2,1-10,3.6l0,0l0,0l0,0c-2.8,2.6-4.3,6.1-4.5,9.6c-0.2,3.5,1,7.2,3.6,10l0,0l0,0l0,0
	c2.6,2.8,6.1,4.3,9.6,4.5c3.6,0.2,7.2-1,10-3.6c2.8-2.6,4.3-6.1,4.5-9.6c0.2-3.6-1-7.2-3.6-10C35.1,15.6,31.6,14.1,28,14L28,14z
	 M42.8,41.7l-3,2.8c-0.1,0-0.1,0.1-0.1,0.2c0,0.1,0,0.1,0.1,0.2l3,3.3l3.5-3.2l-3-3.3c0-0.1-0.1-0.1-0.2-0.1
	C43,41.6,42.9,41.6,42.8,41.7L42.8,41.7z M44,49.5l7.8,8.6c0,0.1,0.1,0.1,0.2,0.1c0.1,0,0.1,0,0.2-0.1l3-2.8c0.1,0,0.1-0.1,0.1-0.2
	c0-0.1,0-0.1-0.1-0.2l-7.8-8.6L44,49.5z"/>
</svg>
